<svg xmlns="http://www.w3.org/2000/svg" viewBox="0 0 48 48">
  <defs>
    <linearGradient id="volleyMasteryArrow" x1="0%" y1="0%" x2="100%" y2="0%">
      <stop offset="0%" style="stop-color:#8b6914"/>
      <stop offset="100%" style="stop-color:#4a3008"/>
    </linearGradient>
    <linearGradient id="volleyMasteryStar" x1="0%" y1="0%" x2="100%" y2="100%">
      <stop offset="0%" style="stop-color:#ffdd00"/>
      <stop offset="100%" style="stop-color:#ff8800"/>
    </linearGradient>
  </defs>
  <!-- Multiple arrows -->
  <g transform="rotate(-30 24 24)">
    <rect x="20" y="6" width="3" height="16" rx="1" fill="url(#volleyMasteryArrow)"/>
    <path d="M21.5 22 L23 28 L21.5 25 L20 28 Z" fill="#808080"/>
  </g>
  <g transform="rotate(-10 24 24)">
    <rect x="21" y="4" width="3" height="18" rx="1" fill="url(#volleyMasteryArrow)"/>
    <path d="M22.5 22 L24 30 L22.5 26 L21 30 Z" fill="#808080"/>
  </g>
  <g transform="rotate(10 24 24)">
    <rect x="21" y="4" width="3" height="18" rx="1" fill="url(#volleyMasteryArrow)"/>
    <path d="M22.5 22 L24 30 L22.5 26 L21 30 Z" fill="#808080"/>
  </g>
  <g transform="rotate(30 24 24)">
    <rect x="20" y="6" width="3" height="16" rx="1" fill="url(#volleyMasteryArrow)"/>
    <path d="M21.5 22 L23 28 L21.5 25 L20 28 Z" fill="#808080"/>
  </g>
  <!-- Star -->
  <polygon points="24,28 26,34 32,34 28,38 30,44 24,40 18,44 20,38 16,34 22,34" fill="url(#volleyMasteryStar)"/>
</svg>
