<svg xmlns="http://www.w3.org/2000/svg" viewBox="0 0 48 48">
  <defs>
    <linearGradient id="armorShield" x1="0%" y1="0%" x2="100%" y2="100%">
      <stop offset="0%" style="stop-color:#8a8a8a"/>
      <stop offset="50%" style="stop-color:#5a5a5a"/>
      <stop offset="100%" style="stop-color:#3a3a3a"/>
    </linearGradient>
    <linearGradient id="armorSpider" x1="0%" y1="0%" x2="100%" y2="100%">
      <stop offset="0%" style="stop-color:#2a1810"/>
      <stop offset="100%" style="stop-color:#0d0505"/>
    </linearGradient>
  </defs>
  <!-- Shield -->
  <path d="M24 4 L42 12 L42 24 Q42 36 24 44 Q6 36 6 24 L6 12 Z" fill="url(#armorShield)"/>
  <path d="M24 4 L42 12 L42 24 Q42 36 24 44 Q6 36 6 24 L6 12 Z" fill="none" stroke="#2a2a2a" stroke-width="1"/>
  <!-- Spider silhouette -->
  <ellipse cx="24" cy="26" rx="8" ry="10" fill="url(#armorSpider)"/>
  <ellipse cx="24" cy="18" rx="5" ry="5" fill="url(#armorSpider)"/>
  <path d="M16 22 Q8 18 4 12" stroke="url(#armorSpider)" stroke-width="2" fill="none"/>
  <path d="M32 22 Q40 18 44 12" stroke="url(#armorSpider)" stroke-width="2" fill="none"/>
  <path d="M18 28 Q10 30 6 36" stroke="url(#armorSpider)" stroke-width="2" fill="none"/>
  <path d="M30 28 Q38 30 42 36" stroke="url(#armorSpider)" stroke-width="2" fill="none"/>
  <path d="M20 30 Q14 38 12 44" stroke="url(#armorSpider)" stroke-width="2" fill="none"/>
  <path d="M28 30 Q34 38 36 44" stroke="url(#armorSpider)" stroke-width="2" fill="none"/>
</svg>
