<svg xmlns="http://www.w3.org/2000/svg" viewBox="0 0 48 48">
  <defs>
    <linearGradient id="ihG" x1="0%" y1="0%" x2="100%" y2="100%">
      <stop offset="0%" style="stop-color:#ff6666"/>
      <stop offset="100%" style="stop-color:#aa2222"/>
    </linearGradient>
  </defs>
  <path d="M24 40 C24 40 8 28 8 18 C8 12 12 8 18 8 C22 8 24 12 24 12 C24 12 26 8 30 8 C36 8 40 12 40 18 C40 28 24 40 24 40 Z" fill="url(#ihG)"/>
  <path d="M24 36 C24 36 12 27 12 20 C12 16 14 13 18 13 C20 13 22 15 24 17 C26 15 28 13 30 13 C34 13 36 16 36 20 C36 27 24 36 24 36 Z" fill="#ff9999" opacity="0.3"/>
</svg>
