<svg xmlns="http://www.w3.org/2000/svg" viewBox="0 0 64 64">
  <defs>
    <linearGradient id="spiderNormalBody" x1="0%" y1="0%" x2="100%" y2="100%">
      <stop offset="0%" style="stop-color:#2a1810"/>
      <stop offset="50%" style="stop-color:#1a0d08"/>
      <stop offset="100%" style="stop-color:#0d0505"/>
    </linearGradient>
    <linearGradient id="spiderNormalLeg" x1="0%" y1="0%" x2="100%" y2="0%">
      <stop offset="0%" style="stop-color:#3d2818"/>
      <stop offset="100%" style="stop-color:#1a0d08"/>
    </linearGradient>
    <radialGradient id="spiderNormalEye" cx="50%" cy="50%" r="50%">
      <stop offset="0%" style="stop-color:#ff3333"/>
      <stop offset="70%" style="stop-color:#990000"/>
      <stop offset="100%" style="stop-color:#330000"/>
    </radialGradient>
  </defs>
  <!-- Back legs -->
  <path d="M18 28 Q8 20 4 12" stroke="url(#spiderNormalLeg)" stroke-width="2.5" fill="none" stroke-linecap="round"/>
  <path d="M46 28 Q56 20 60 12" stroke="url(#spiderNormalLeg)" stroke-width="2.5" fill="none" stroke-linecap="round"/>
  <path d="M14 32 Q2 30 0 24" stroke="url(#spiderNormalLeg)" stroke-width="2.5" fill="none" stroke-linecap="round"/>
  <path d="M50 32 Q62 30 64 24" stroke="url(#spiderNormalLeg)" stroke-width="2.5" fill="none" stroke-linecap="round"/>
  <!-- Front legs -->
  <path d="M22 36 Q12 44 8 52" stroke="url(#spiderNormalLeg)" stroke-width="2.5" fill="none" stroke-linecap="round"/>
  <path d="M42 36 Q52 44 56 52" stroke="url(#spiderNormalLeg)" stroke-width="2.5" fill="none" stroke-linecap="round"/>
  <path d="M26 38 Q18 48 16 58" stroke="url(#spiderNormalLeg)" stroke-width="2.5" fill="none" stroke-linecap="round"/>
  <path d="M38 38 Q46 48 48 58" stroke="url(#spiderNormalLeg)" stroke-width="2.5" fill="none" stroke-linecap="round"/>
  <!-- Abdomen -->
  <ellipse cx="32" cy="36" rx="14" ry="16" fill="url(#spiderNormalBody)"/>
  <!-- Cephalothorax -->
  <ellipse cx="32" cy="22" rx="10" ry="9" fill="url(#spiderNormalBody)"/>
  <!-- Eyes -->
  <ellipse cx="28" cy="18" rx="4" ry="5" fill="url(#spiderNormalEye)"/>
  <ellipse cx="36" cy="18" rx="4" ry="5" fill="url(#spiderNormalEye)"/>
  <ellipse cx="24" cy="22" rx="2" ry="2.5" fill="#ff6666"/>
  <ellipse cx="40" cy="22" rx="2" ry="2.5" fill="#ff6666"/>
  <ellipse cx="32" cy="24" rx="2" ry="2" fill="#ff6666"/>
</svg>
