<svg xmlns="http://www.w3.org/2000/svg" viewBox="0 0 64 64">
  <defs>
    <linearGradient id="spiderMegaFatBody" x1="0%" y1="0%" x2="100%" y2="100%">
      <stop offset="0%" stop-color="#65432b"/>
      <stop offset="50%" stop-color="#3d2818"/>
      <stop offset="100%" stop-color="#211109"/>
    </linearGradient>
    <linearGradient id="spiderMegaFatLeg" x1="0%" y1="0%" x2="100%" y2="0%">
      <stop offset="0%" stop-color="#6a4c30"/>
      <stop offset="100%" stop-color="#2a1810"/>
    </linearGradient>
    <radialGradient id="spiderMegaFatEye">
      <stop offset="0%" stop-color="#ff3333"/>
      <stop offset="70%" stop-color="#990000"/>
      <stop offset="100%" stop-color="#330000"/>
    </radialGradient>
  </defs>
  <g stroke="url(#spiderMegaFatLeg)" stroke-width="4.5" fill="none" stroke-linecap="round">
    <path d="M14 28 Q5 22 3 13"/>
    <path d="M50 28 Q59 22 61 13"/>
    <path d="M11 35 Q3 35 2 28"/>
    <path d="M53 35 Q61 35 62 28"/>
    <path d="M16 41 Q7 46 3 54"/>
    <path d="M48 41 Q57 46 61 54"/>
    <path d="M23 47 Q16 54 13 61"/>
    <path d="M41 47 Q48 54 51 61"/>
  </g>
  <ellipse cx="32" cy="37" rx="23" ry="24" fill="url(#spiderMegaFatBody)" stroke="#795336" stroke-width="1.5"/>
  <g fill="none" stroke="#8c6240" stroke-width="2" opacity="0.65">
    <path d="M14 34 Q32 44 50 34"/>
    <path d="M13 42 Q32 53 51 42"/>
    <path d="M19 51 Q32 57 45 51"/>
  </g>
  <ellipse cx="32" cy="18" rx="14" ry="12" fill="url(#spiderMegaFatBody)"/>
  <ellipse cx="26" cy="13" rx="5.5" ry="6.5" fill="url(#spiderMegaFatEye)"/>
  <ellipse cx="38" cy="13" rx="5.5" ry="6.5" fill="url(#spiderMegaFatEye)"/>
  <g fill="#ff6666">
    <ellipse cx="21" cy="20" rx="3" ry="3.5"/>
    <ellipse cx="43" cy="20" rx="3" ry="3.5"/>
    <circle cx="32" cy="22" r="3"/>
  </g>
</svg>
