<svg xmlns="http://www.w3.org/2000/svg" viewBox="0 0 64 64">
  <defs>
    <linearGradient id="spiderBurnerBody" x1="0%" y1="0%" x2="100%" y2="100%">
      <stop offset="0%" style="stop-color:#ff6633"/>
      <stop offset="50%" style="stop-color:#cc3300"/>
      <stop offset="100%" style="stop-color:#991a00"/>
    </linearGradient>
    <linearGradient id="spiderBurnerLeg" x1="0%" y1="0%" x2="100%" y2="0%">
      <stop offset="0%" style="stop-color:#ff8844"/>
      <stop offset="100%" style="stop-color:#cc3300"/>
    </linearGradient>
    <radialGradient id="spiderBurnerEye" cx="50%" cy="50%" r="50%">
      <stop offset="0%" style="stop-color:#ffff00"/>
      <stop offset="50%" style="stop-color:#ff8800"/>
      <stop offset="100%" style="stop-color:#cc4400"/>
    </radialGradient>
    <radialGradient id="fireGlow" cx="50%" cy="50%" r="50%">
      <stop offset="0%" style="stop-color:#ffaa00;stop-opacity:0.8"/>
      <stop offset="100%" style="stop-color:#ff3300;stop-opacity:0"/>
    </radialGradient>
  </defs>
  <!-- Fire glow -->
  <ellipse cx="32" cy="32" rx="28" ry="28" fill="url(#fireGlow)"/>
  <!-- Back legs -->
  <path d="M18 28 Q8 20 4 12" stroke="url(#spiderBurnerLeg)" stroke-width="2.5" fill="none" stroke-linecap="round"/>
  <path d="M46 28 Q56 20 60 12" stroke="url(#spiderBurnerLeg)" stroke-width="2.5" fill="none" stroke-linecap="round"/>
  <path d="M14 32 Q2 30 0 24" stroke="url(#spiderBurnerLeg)" stroke-width="2.5" fill="none" stroke-linecap="round"/>
  <path d="M50 32 Q62 30 64 24" stroke="url(#spiderBurnerLeg)" stroke-width="2.5" fill="none" stroke-linecap="round"/>
  <!-- Front legs -->
  <path d="M22 36 Q12 44 8 52" stroke="url(#spiderBurnerLeg)" stroke-width="2.5" fill="none" stroke-linecap="round"/>
  <path d="M42 36 Q52 44 56 52" stroke="url(#spiderBurnerLeg)" stroke-width="2.5" fill="none" stroke-linecap="round"/>
  <path d="M26 38 Q18 48 16 58" stroke="url(#spiderBurnerLeg)" stroke-width="2.5" fill="none" stroke-linecap="round"/>
  <path d="M38 38 Q46 48 48 58" stroke="url(#spiderBurnerLeg)" stroke-width="2.5" fill="none" stroke-linecap="round"/>
  <!-- Abdomen with glowing marks -->
  <ellipse cx="32" cy="36" rx="14" ry="16" fill="url(#spiderBurnerBody)"/>
  <path d="M24 32 Q32 28 40 32 Q32 36 24 32" fill="none" stroke="#ffcc00" stroke-width="1.5" opacity="0.9"/>
  <path d="M26 40 Q32 36 38 40 Q32 44 26 40" fill="none" stroke="#ffaa00" stroke-width="1" opacity="0.7"/>
  <!-- Cephalothorax -->
  <ellipse cx="32" cy="22" rx="10" ry="9" fill="url(#spiderBurnerBody)"/>
  <!-- Eyes - fiery -->
  <ellipse cx="28" cy="18" rx="4" ry="5" fill="url(#spiderBurnerEye)"/>
  <ellipse cx="36" cy="18" rx="4" ry="5" fill="url(#spiderBurnerEye)"/>
  <ellipse cx="24" cy="22" rx="2" ry="2.5" fill="#ffff66"/>
  <ellipse cx="40" cy="22" rx="2" ry="2.5" fill="#ffff66"/>
  <ellipse cx="32" cy="24" rx="2" ry="2" fill="#ffff66"/>
</svg>
