<svg xmlns="http://www.w3.org/2000/svg" viewBox="0 0 64 64">
  <defs>
    <linearGradient id="spiderFatBody" x1="0%" y1="0%" x2="100%" y2="100%">
      <stop offset="0%" style="stop-color:#3d2818"/>
      <stop offset="50%" style="stop-color:#2a1810"/>
      <stop offset="100%" style="stop-color:#1a0d08"/>
    </linearGradient>
    <linearGradient id="spiderFatLeg" x1="0%" y1="0%" x2="100%" y2="0%">
      <stop offset="0%" style="stop-color:#4a3520"/>
      <stop offset="100%" style="stop-color:#2a1810"/>
    </linearGradient>
    <radialGradient id="spiderFatEye" cx="50%" cy="50%" r="50%">
      <stop offset="0%" style="stop-color:#ff3333"/>
      <stop offset="70%" style="stop-color:#990000"/>
      <stop offset="100%" style="stop-color:#330000"/>
    </radialGradient>
  </defs>
  <!-- Back legs - shorter, thicker -->
  <path d="M16 30 Q6 24 2 16" stroke="url(#spiderFatLeg)" stroke-width="3.5" fill="none" stroke-linecap="round"/>
  <path d="M48 30 Q58 24 62 16" stroke="url(#spiderFatLeg)" stroke-width="3.5" fill="none" stroke-linecap="round"/>
  <path d="M12 34 Q0 34 -2 28" stroke="url(#spiderFatLeg)" stroke-width="3.5" fill="none" stroke-linecap="round"/>
  <path d="M52 34 Q64 34 66 28" stroke="url(#spiderFatLeg)" stroke-width="3.5" fill="none" stroke-linecap="round"/>
  <!-- Front legs -->
  <path d="M20 38 Q10 46 6 54" stroke="url(#spiderFatLeg)" stroke-width="3.5" fill="none" stroke-linecap="round"/>
  <path d="M44 38 Q54 46 58 54" stroke="url(#spiderFatLeg)" stroke-width="3.5" fill="none" stroke-linecap="round"/>
  <path d="M24 40 Q16 50 14 60" stroke="url(#spiderFatLeg)" stroke-width="3.5" fill="none" stroke-linecap="round"/>
  <path d="M40 40 Q48 50 50 60" stroke="url(#spiderFatLeg)" stroke-width="3.5" fill="none" stroke-linecap="round"/>
  <!-- Large abdomen -->
  <ellipse cx="32" cy="38" rx="18" ry="20" fill="url(#spiderFatBody)"/>
  <!-- Cephalothorax - bulkier -->
  <ellipse cx="32" cy="20" rx="12" ry="11" fill="url(#spiderFatBody)"/>
  <!-- Eyes -->
  <ellipse cx="27" cy="15" rx="5" ry="6" fill="url(#spiderFatEye)"/>
  <ellipse cx="37" cy="15" rx="5" ry="6" fill="url(#spiderFatEye)"/>
  <ellipse cx="22" cy="20" rx="2.5" ry="3" fill="#ff6666"/>
  <ellipse cx="42" cy="20" rx="2.5" ry="3" fill="#ff6666"/>
  <ellipse cx="32" cy="22" rx="2.5" ry="2.5" fill="#ff6666"/>
</svg>
