<svg xmlns="http://www.w3.org/2000/svg" viewBox="0 0 48 48">
  <defs>
    <linearGradient id="volleyArrow" x1="0%" y1="0%" x2="100%" y2="0%">
      <stop offset="0%" style="stop-color:#8b6914"/>
      <stop offset="100%" style="stop-color:#4a3008"/>
    </linearGradient>
    <linearGradient id="volleyHead" x1="0%" y1="50%" x2="100%" y2="50%">
      <stop offset="0%" style="stop-color:#c0c0c0"/>
      <stop offset="100%" style="stop-color:#808080"/>
    </linearGradient>
  </defs>
  <!-- Center arrow (vertical) -->
  <rect x="22" y="8" width="4" height="20" rx="1" fill="url(#volleyArrow)"/>
  <path d="M24 28 L28 36 L24 32 L20 36 Z" fill="url(#volleyHead)"/>
  <!-- Left arrows - fan pattern -->
  <g transform="rotate(-25 24 24)">
    <rect x="10" y="18" width="3" height="14" rx="1" fill="url(#volleyArrow)"/>
    <path d="M11.5 32 L14 38 L11.5 35 L9 38 Z" fill="url(#volleyHead)"/>
  </g>
  <g transform="rotate(-45 24 24)">
    <rect x="6" y="20" width="3" height="12" rx="1" fill="url(#volleyArrow)"/>
    <path d="M7.5 32 L10 36 L7.5 34 L5 36 Z" fill="url(#volleyHead)"/>
  </g>
  <!-- Right arrows - fan pattern -->
  <g transform="rotate(25 24 24)">
    <rect x="35" y="18" width="3" height="14" rx="1" fill="url(#volleyArrow)"/>
    <path d="M36.5 32 L34 38 L36.5 35 L39 38 Z" fill="url(#volleyHead)"/>
  </g>
  <g transform="rotate(45 24 24)">
    <rect x="39" y="20" width="3" height="12" rx="1" fill="url(#volleyArrow)"/>
    <path d="M40.5 32 L38 36 L40.5 34 L43 36 Z" fill="url(#volleyHead)"/>
  </g>
</svg>
