<svg xmlns="http://www.w3.org/2000/svg" viewBox="0 0 48 48">
  <defs>
    <linearGradient id="healGreen" x1="0%" y1="0%" x2="100%" y2="100%">
      <stop offset="0%" style="stop-color:#88dd88"/>
      <stop offset="50%" style="stop-color:#44aa44"/>
      <stop offset="100%" style="stop-color:#228822"/>
    </linearGradient>
    <linearGradient id="healCross" x1="0%" y1="0%" x2="100%" y2="100%">
      <stop offset="0%" style="stop-color:#aaffaa"/>
      <stop offset="100%" style="stop-color:#44aa44"/>
    </linearGradient>
  </defs>
  <!-- Heart shape -->
  <path d="M24 40 C24 40 8 28 8 18 C8 12 12 8 18 8 C22 8 24 12 24 12 C24 12 26 8 30 8 C36 8 40 12 40 18 C40 28 24 40 24 40 Z" fill="url(#healGreen)"/>
  <!-- Cross overlay -->
  <rect x="21" y="14" width="6" height="20" rx="2" fill="url(#healCross)"/>
  <rect x="14" y="21" width="20" height="6" rx="2" fill="url(#healCross)"/>
  <!-- Plus sign highlight -->
  <rect x="22" y="16" width="4" height="16" fill="#ccffcc" opacity="0.5"/>
  <rect x="16" y="22" width="16" height="4" fill="#ccffcc" opacity="0.5"/>
</svg>
