<svg xmlns="http://www.w3.org/2000/svg" viewBox="0 0 64 64" width="64" height="64">
  <rect width="64" height="64" fill="#1a0500" opacity="0"/>
  <g opacity="0.85">
    <path d="M4 64 Q6 50 3 40 Q8 30 5 20 Q10 28 8 38 Q12 48 10 64Z" fill="#cc3300"/>
    <path d="M12 64 Q14 48 11 36 Q16 26 13 14 Q18 24 16 34 Q20 46 18 64Z" fill="#ff4400"/>
    <path d="M20 64 Q22 52 19 42 Q24 32 21 22 Q26 30 24 40 Q28 50 26 64Z" fill="#ee3800"/>
    <path d="M28 64 Q30 46 27 34 Q32 24 29 12 Q34 22 32 32 Q36 44 34 64Z" fill="#ff5500"/>
    <path d="M36 64 Q38 50 35 38 Q40 28 37 18 Q42 26 40 36 Q44 48 42 64Z" fill="#cc3300"/>
    <path d="M44 64 Q46 48 43 36 Q48 26 45 16 Q50 24 48 34 Q52 46 50 64Z" fill="#ff4400"/>
    <path d="M52 64 Q54 52 51 40 Q56 30 53 20 Q58 28 56 38 Q60 50 58 64Z" fill="#ee3800"/>
    <path d="M60 64 Q62 46 59 34 Q64 24 61 14 Q64 22 64 32 Q64 44 64 64Z" fill="#ff5500"/>
  </g>
  <g opacity="0.7">
    <path d="M6 64 Q8 54 5 44 Q10 34 7 26 Q12 32 10 42 Q14 52 12 64Z" fill="#ff6600"/>
    <path d="M16 64 Q18 50 15 38 Q20 28 17 18 Q22 26 20 36 Q24 48 22 64Z" fill="#ffaa00"/>
    <path d="M26 64 Q28 54 25 44 Q30 34 27 24 Q32 32 30 42 Q34 52 32 64Z" fill="#ff7700"/>
    <path d="M34 64 Q36 48 33 36 Q38 26 35 16 Q40 24 38 34 Q42 46 40 64Z" fill="#ffaa00"/>
    <path d="M46 64 Q48 54 45 42 Q50 32 47 22 Q52 30 50 40 Q54 52 52 64Z" fill="#ff6600"/>
    <path d="M56 64 Q58 50 55 38 Q60 28 57 18 Q62 26 60 36 Q64 48 62 64Z" fill="#ffaa00"/>
  </g>
  <g opacity="0.5">
    <path d="M8 64 Q10 56 7 48 Q12 40 9 32 Q14 38 12 46 Q16 54 14 64Z" fill="#ffcc44"/>
    <path d="M22 64 Q24 54 21 44 Q26 36 23 28 Q28 34 26 42 Q30 52 28 64Z" fill="#ffdd66"/>
    <path d="M38 64 Q40 56 37 46 Q42 38 39 30 Q44 36 42 44 Q46 54 44 64Z" fill="#ffcc44"/>
    <path d="M54 64 Q56 54 53 44 Q58 36 55 28 Q60 34 58 42 Q62 52 60 64Z" fill="#ffdd66"/>
  </g>
  <g fill="#ffffff" opacity="0.25">
    <ellipse cx="10" cy="58" rx="2" ry="3"/>
    <ellipse cx="24" cy="54" rx="1.5" ry="2.5"/>
    <ellipse cx="40" cy="56" rx="2" ry="3"/>
    <ellipse cx="56" cy="52" rx="1.5" ry="2.5"/>
  </g>
</svg>
