<svg xmlns="http://www.w3.org/2000/svg" viewBox="0 0 64 64" width="64" height="64">
  <rect width="64" height="64" fill="#3a7d28"/>
  <!-- Dense grass blades covering full tile -->
  <g fill="#2e6b1e" opacity="0.7">
    <path d="M2 10 Q3 2 1 -4 Q5 3 6 10Z"/>
    <path d="M9 14 Q10 5 8 -2 Q12 6 13 14Z"/>
    <path d="M17 8 Q18 0 16 -6 Q20 1 21 8Z"/>
    <path d="M25 12 Q26 3 24 -3 Q28 4 29 12Z"/>
    <path d="M33 6 Q34 -2 32 -8 Q36 -1 37 6Z"/>
    <path d="M41 11 Q42 2 40 -4 Q44 3 45 11Z"/>
    <path d="M49 9 Q50 1 48 -5 Q52 2 53 9Z"/>
    <path d="M57 13 Q58 4 56 -2 Q60 5 61 13Z"/>

    <path d="M4 28 Q5 19 3 12 Q7 20 8 28Z"/>
    <path d="M12 24 Q13 15 11 8 Q15 16 16 24Z"/>
    <path d="M20 30 Q21 21 19 14 Q23 22 24 30Z"/>
    <path d="M28 26 Q29 17 27 10 Q31 18 32 26Z"/>
    <path d="M36 32 Q37 23 35 16 Q39 24 40 32Z"/>
    <path d="M44 27 Q45 18 43 11 Q47 19 48 27Z"/>
    <path d="M52 31 Q53 22 51 15 Q55 23 56 31Z"/>
    <path d="M60 25 Q61 16 59 9 Q63 17 64 25Z"/>

    <path d="M3 46 Q4 37 2 30 Q6 38 7 46Z"/>
    <path d="M11 42 Q12 33 10 26 Q14 34 15 42Z"/>
    <path d="M19 48 Q20 39 18 32 Q22 40 23 48Z"/>
    <path d="M27 44 Q28 35 26 28 Q30 36 31 44Z"/>
    <path d="M35 50 Q36 41 34 34 Q38 42 39 50Z"/>
    <path d="M43 45 Q44 36 42 29 Q46 37 47 45Z"/>
    <path d="M51 49 Q52 40 50 33 Q54 41 55 49Z"/>
    <path d="M59 43 Q60 34 58 27 Q62 35 63 43Z"/>

    <path d="M5 64 Q6 55 4 48 Q8 56 9 64Z"/>
    <path d="M13 60 Q14 51 12 44 Q16 52 17 60Z"/>
    <path d="M21 66 Q22 57 20 50 Q24 58 25 66Z"/>
    <path d="M29 62 Q30 53 28 46 Q32 54 33 62Z"/>
    <path d="M37 68 Q38 59 36 52 Q40 60 41 68Z"/>
    <path d="M45 63 Q46 54 44 47 Q48 55 49 63Z"/>
    <path d="M53 67 Q54 58 52 51 Q56 59 57 67Z"/>
    <path d="M61 61 Q62 52 60 45 Q64 53 64 61Z"/>
  </g>
  <!-- Second layer offset -->
  <g fill="#4a9932" opacity="0.5">
    <path d="M6 7 Q7 -1 5 -7 Q9 0 10 7Z"/>
    <path d="M14 11 Q15 3 13 -3 Q17 4 18 11Z"/>
    <path d="M22 5 Q23 -3 21 -9 Q25 -2 26 5Z"/>
    <path d="M30 9 Q31 1 29 -5 Q33 2 34 9Z"/>
    <path d="M38 13 Q39 5 37 -1 Q41 6 42 13Z"/>
    <path d="M46 6 Q47 -2 45 -8 Q49 -1 50 6Z"/>
    <path d="M54 10 Q55 2 53 -4 Q57 3 58 10Z"/>
    <path d="M62 8 Q63 0 61 -6 Q64 1 64 8Z"/>

    <path d="M7 25 Q8 16 6 9 Q10 17 11 25Z"/>
    <path d="M15 21 Q16 12 14 5 Q18 13 19 21Z"/>
    <path d="M23 27 Q24 18 22 11 Q26 19 27 27Z"/>
    <path d="M31 23 Q32 14 30 7 Q34 15 35 23Z"/>
    <path d="M39 29 Q40 20 38 13 Q42 21 43 29Z"/>
    <path d="M47 24 Q48 15 46 8 Q50 16 51 24Z"/>
    <path d="M55 28 Q56 19 54 12 Q58 20 59 28Z"/>

    <path d="M6 43 Q7 34 5 27 Q9 35 10 43Z"/>
    <path d="M14 39 Q15 30 13 23 Q17 31 18 39Z"/>
    <path d="M22 45 Q23 36 21 29 Q25 37 26 45Z"/>
    <path d="M30 41 Q31 32 29 25 Q33 33 34 41Z"/>
    <path d="M38 47 Q39 38 37 31 Q41 39 42 47Z"/>
    <path d="M46 42 Q47 33 45 26 Q49 34 50 42Z"/>
    <path d="M54 46 Q55 37 53 30 Q57 38 58 46Z"/>

    <path d="M7 61 Q8 52 6 45 Q10 53 11 61Z"/>
    <path d="M15 57 Q16 48 14 41 Q18 49 19 57Z"/>
    <path d="M23 63 Q24 54 22 47 Q26 55 27 63Z"/>
    <path d="M31 59 Q32 50 30 43 Q34 51 35 59Z"/>
    <path d="M39 65 Q40 56 38 49 Q42 57 43 65Z"/>
    <path d="M47 60 Q48 51 46 44 Q50 52 51 60Z"/>
    <path d="M55 64 Q56 55 54 48 Q58 56 59 64Z"/>
  </g>
  <!-- Third layer - darker accents -->
  <g fill="#2a5e18" opacity="0.45">
    <path d="M1 16 Q2 8 0 2 Q4 9 5 16Z"/>
    <path d="M16 19 Q17 11 15 5 Q19 12 20 19Z"/>
    <path d="M32 15 Q33 7 31 1 Q35 8 36 15Z"/>
    <path d="M48 18 Q49 10 47 4 Q51 11 52 18Z"/>

    <path d="M8 34 Q9 26 7 20 Q11 27 12 34Z"/>
    <path d="M24 37 Q25 29 23 23 Q27 30 28 37Z"/>
    <path d="M40 33 Q41 25 39 19 Q43 26 44 33Z"/>
    <path d="M56 36 Q57 28 55 22 Q59 29 60 36Z"/>

    <path d="M1 52 Q2 44 0 38 Q4 45 5 52Z"/>
    <path d="M16 55 Q17 47 15 41 Q19 48 20 55Z"/>
    <path d="M32 51 Q33 43 31 37 Q35 44 36 51Z"/>
    <path d="M48 54 Q49 46 47 40 Q51 47 52 54Z"/>
  </g>
  <!-- Subtle light spots -->
  <g fill="#5aaa3e" opacity="0.2">
    <circle cx="10" cy="5" r="1.2"/><circle cx="30" cy="3" r="1"/>
    <circle cx="50" cy="7" r="1.3"/><circle cx="62" cy="4" r="1"/>
    <circle cx="5" cy="20" r="1.1"/><circle cx="22" cy="18" r="1.3"/>
    <circle cx="42" cy="22" r="1"/><circle cx="58" cy="19" r="1.2"/>
    <circle cx="8" cy="35" r="1.2"/><circle cx="28" cy="38" r="1"/>
    <circle cx="45" cy="33" r="1.3"/><circle cx="60" cy="37" r="1"/>
    <circle cx="12" cy="52" r="1.1"/><circle cx="35" cy="55" r="1.2"/>
    <circle cx="52" cy="50" r="1"/><circle cx="3" cy="58" r="1.3"/>
  </g>
</svg>
