<svg xmlns="http://www.w3.org/2000/svg" viewBox="0 0 64 64" width="64" height="64">
  <rect width="64" height="64" fill="#3a7d28"/>
  <g fill="#2e6b1e" opacity="0.6">
    <path d="M5 60 Q6 45 4 35 Q7 42 8 60Z"/>
    <path d="M12 62 Q14 48 11 38 Q15 46 16 62Z"/>
    <path d="M22 61 Q23 44 20 32 Q25 40 26 61Z"/>
    <path d="M32 63 Q34 50 31 40 Q36 48 37 63Z"/>
    <path d="M42 60 Q43 46 40 34 Q45 42 46 60Z"/>
    <path d="M52 62 Q54 47 51 36 Q56 44 57 62Z"/>
    <path d="M60 61 Q62 48 59 38 Q63 45 64 61Z"/>
  </g>
  <g fill="#4a9932" opacity="0.5">
    <path d="M8 63 Q10 52 7 42 Q12 50 13 63Z"/>
    <path d="M18 60 Q19 47 16 36 Q21 44 22 60Z"/>
    <path d="M28 62 Q30 49 27 38 Q32 46 33 62Z"/>
    <path d="M38 61 Q39 46 36 34 Q41 42 42 61Z"/>
    <path d="M48 63 Q50 50 47 40 Q52 48 53 63Z"/>
    <path d="M58 60 Q59 48 56 37 Q61 45 62 60Z"/>
  </g>
  <g fill="#2a5e18" opacity="0.4">
    <path d="M3 64 Q5 55 2 48 Q7 53 8 64Z"/>
    <path d="M15 64 Q17 53 14 44 Q19 51 20 64Z"/>
    <path d="M25 64 Q27 54 24 46 Q29 52 30 64Z"/>
    <path d="M35 64 Q37 55 34 47 Q39 53 40 64Z"/>
    <path d="M45 64 Q47 54 44 45 Q49 52 50 64Z"/>
    <path d="M55 64 Q57 53 54 44 Q59 51 60 64Z"/>
  </g>
  <g fill="#5aaa3e" opacity="0.3">
    <circle cx="10" cy="20" r="1.5"/>
    <circle cx="30" cy="15" r="1"/>
    <circle cx="50" cy="22" r="1.5"/>
    <circle cx="20" cy="10" r="1"/>
    <circle cx="45" cy="8" r="1.2"/>
    <circle cx="55" cy="30" r="1"/>
    <circle cx="8" cy="35" r="1.2"/>
    <circle cx="38" cy="25" r="1"/>
  </g>
</svg>
