<svg xmlns="http://www.w3.org/2000/svg" viewBox="0 0 64 64">
  <defs>
    <linearGradient id="archerTunic" x1="0%" y1="0%" x2="0%" y2="100%">
      <stop offset="0%" style="stop-color:#4a6b3a"/>
      <stop offset="50%" style="stop-color:#3d5a2e"/>
      <stop offset="100%" style="stop-color:#2d4422"/>
    </linearGradient>
    <linearGradient id="archerBow" x1="0%" y1="0%" x2="100%" y2="100%">
      <stop offset="0%" style="stop-color:#8b6914"/>
      <stop offset="50%" style="stop-color:#6b4a0a"/>
      <stop offset="100%" style="stop-color:#4a3008"/>
    </linearGradient>
    <linearGradient id="archerSkin" x1="0%" y1="0%" x2="100%" y2="100%">
      <stop offset="0%" style="stop-color:#e8c4a0"/>
      <stop offset="100%" style="stop-color:#c9a67a"/>
    </linearGradient>
    <linearGradient id="archerHood" x1="0%" y1="0%" x2="0%" y2="100%">
      <stop offset="0%" style="stop-color:#5c4033"/>
      <stop offset="100%" style="stop-color:#3d2818"/>
    </linearGradient>
  </defs>
  <!-- Legs -->
  <rect x="22" y="48" width="6" height="14" rx="2" fill="url(#archerTunic)"/>
  <rect x="36" y="48" width="6" height="14" rx="2" fill="url(#archerTunic)"/>
  <!-- Tunic/body -->
  <path d="M20 28 L44 28 L42 52 L22 52 Z" fill="url(#archerTunic)"/>
  <path d="M22 28 L26 52 M42 28 L38 52" stroke="#2d4422" stroke-width="1" fill="none"/>
  <!-- Belt -->
  <rect x="20" y="40" width="24" height="4" fill="#4a3008"/>
  <!-- Arms - drawing bow -->
  <path d="M44 24 Q52 20 56 28 Q52 36 44 32" stroke="url(#archerBow)" stroke-width="3" fill="none"/>
  <path d="M20 24 Q12 20 8 28 Q12 36 20 32" stroke="url(#archerBow)" stroke-width="3" fill="none"/>
  <!-- Bow string -->
  <line x1="8" y1="28" x2="56" y2="28" stroke="#ddd" stroke-width="0.5"/>
  <!-- Arrow nocked -->
  <line x1="32" y1="52" x2="32" y2="12" stroke="#8b6914" stroke-width="1.5"/>
  <!-- Head/hood -->
  <ellipse cx="32" cy="18" rx="10" ry="12" fill="url(#archerHood)"/>
  <ellipse cx="32" cy="16" rx="6" ry="7" fill="url(#archerSkin)"/>
  <!-- Face -->
  <ellipse cx="30" cy="15" rx="1" ry="1.5" fill="#2a1810"/>
  <ellipse cx="34" cy="15" rx="1" ry="1.5" fill="#2a1810"/>
  <!-- Quiver -->
  <path d="M18 20 L22 20 L24 50 L16 50 Z" fill="url(#archerTunic)" opacity="0.8"/>
  <line x1="18" y1="28" x2="22" y2="28" stroke="#2d4422" stroke-width="0.5"/>
  <line x1="18" y1="36" x2="22" y2="36" stroke="#2d4422" stroke-width="0.5"/>
</svg>
