<svg xmlns="http://www.w3.org/2000/svg" viewBox="0 0 64 64">
  <defs>
    <linearGradient id="castleStone" x1="0%" y1="0%" x2="100%" y2="100%">
      <stop offset="0%" style="stop-color:#8a8a8a"/>
      <stop offset="30%" style="stop-color:#6a6a6a"/>
      <stop offset="70%" style="stop-color:#5a5a5a"/>
      <stop offset="100%" style="stop-color:#4a4a4a"/>
    </linearGradient>
    <linearGradient id="castleStoneDark" x1="0%" y1="0%" x2="100%" y2="100%">
      <stop offset="0%" style="stop-color:#6a6a6a"/>
      <stop offset="100%" style="stop-color:#3a3a3a"/>
    </linearGradient>
    <linearGradient id="castleMortar" x1="0%" y1="0%" x2="0%" y2="100%">
      <stop offset="0%" style="stop-color:#9a8a7a"/>
      <stop offset="100%" style="stop-color:#6a5a4a"/>
    </linearGradient>
    <pattern id="brickPattern" width="8" height="4" patternUnits="userSpaceOnUse">
      <rect width="8" height="4" fill="none"/>
      <line x1="0" y1="4" x2="8" y2="4" stroke="#5a4a3a" stroke-width="0.5"/>
      <line x1="4" y1="0" x2="4" y2="4" stroke="#5a4a3a" stroke-width="0.5"/>
    </pattern>
  </defs>
  <!-- Ground/base -->
  <rect x="0" y="56" width="64" height="8" fill="url(#castleStoneDark)"/>
  <!-- Main wall - battlement at bottom -->
  <rect x="0" y="20" width="64" height="36" fill="url(#castleStone)"/>
  <!-- Stone blocks pattern -->
  <rect x="2" y="22" width="12" height="8" rx="1" fill="url(#castleStoneDark)"/>
  <rect x="16" y="22" width="12" height="8" rx="1" fill="url(#castleStoneDark)"/>
  <rect x="36" y="22" width="12" height="8" rx="1" fill="url(#castleStoneDark)"/>
  <rect x="50" y="22" width="12" height="8" rx="1" fill="url(#castleStoneDark)"/>
  <rect x="2" y="32" width="12" height="8" rx="1" fill="url(#castleStoneDark)"/>
  <rect x="16" y="32" width="12" height="8" rx="1" fill="url(#castleStoneDark)"/>
  <rect x="36" y="32" width="12" height="8" rx="1" fill="url(#castleStoneDark)"/>
  <rect x="50" y="32" width="12" height="8" rx="1" fill="url(#castleStoneDark)"/>
  <rect x="2" y="42" width="12" height="8" rx="1" fill="url(#castleStoneDark)"/>
  <rect x="16" y="42" width="12" height="8" rx="1" fill="url(#castleStoneDark)"/>
  <rect x="36" y="42" width="12" height="8" rx="1" fill="url(#castleStoneDark)"/>
  <rect x="50" y="42" width="12" height="8" rx="1" fill="url(#castleStoneDark)"/>
  <!-- Mortar lines -->
  <rect x="14" y="20" width="2" height="36" fill="url(#castleMortar)"/>
  <rect x="34" y="20" width="2" height="36" fill="url(#castleMortar)"/>
  <rect x="48" y="20" width="2" height="36" fill="url(#castleMortar)"/>
  <!-- Crenellations -->
  <rect x="0" y="56" width="64" height="4" fill="url(#castleStone)"/>
  <rect x="4" y="52" width="8" height="8" fill="url(#castleStone)"/>
  <rect x="4" y="52" width="8" height="4" fill="url(#castleStoneDark)"/>
  <rect x="20" y="52" width="8" height="8" fill="url(#castleStone)"/>
  <rect x="20" y="52" width="8" height="4" fill="url(#castleStoneDark)"/>
  <rect x="36" y="52" width="8" height="8" fill="url(#castleStone)"/>
  <rect x="36" y="52" width="8" height="4" fill="url(#castleStoneDark)"/>
  <rect x="52" y="52" width="8" height="8" fill="url(#castleStone)"/>
  <rect x="52" y="52" width="8" height="4" fill="url(#castleStoneDark)"/>
  <!-- Arrow slits -->
  <rect x="6" y="36" width="2" height="12" fill="#1a1a1a"/>
  <rect x="30" y="36" width="2" height="12" fill="#1a1a1a"/>
  <rect x="56" y="36" width="2" height="12" fill="#1a1a1a"/>
</svg>
